<svg xmlns="http://www.w3.org/2000/svg" width="360" height="360" viewBox="0 0 360 360">
  <g fill="none" stroke="#ffffff" stroke-opacity="0.045" stroke-width="3.2"
     stroke-linecap="round" stroke-linejoin="round">
    <!-- speech bubble -->
    <path d="M40 44h54a10 10 0 0 1 10 10v30a10 10 0 0 1-10 10H66l-16 12v-12a10 10 0 0 1-10-10V54a10 10 0 0 1 10-10z"/>
    <!-- heart -->
    <path d="M250 50c-7-10-22-7-22 5 0 10 22 23 22 23s22-13 22-23c0-12-15-15-22-5z"/>
    <!-- musical note -->
    <path d="M160 40v44"/><circle cx="152" cy="86" r="8"/>
    <path d="M160 40l20-6v40"/><circle cx="172" cy="76" r="8"/>
    <!-- smiley -->
    <circle cx="312" cy="150" r="24"/><circle cx="304" cy="144" r="2"/><circle cx="320" cy="144" r="2"/>
    <path d="M302 158a14 10 0 0 0 20 0"/>
    <!-- phone handset -->
    <path d="M44 156c0 36 28 64 64 64l10-14-18-12-10 8c-12-6-22-16-28-28l8-10-12-18z"/>
    <!-- camera -->
    <rect x="150" y="150" width="60" height="44" rx="8"/><circle cx="180" cy="172" r="12"/>
    <path d="M166 150l6-8h16l6 8"/>
    <!-- star -->
    <path d="M70 250l8 18 20 2-15 14 4 20-17-10-17 10 4-20-15-14 20-2z"/>
    <!-- envelope -->
    <rect x="150" y="252" width="60" height="40" rx="6"/><path d="M150 256l30 20 30-20"/>
    <!-- wifi / mesh arcs -->
    <path d="M286 268a30 30 0 0 1 52 0"/><path d="M296 280a16 16 0 0 1 32 0"/><circle cx="312" cy="290" r="3"/>
    <!-- paper plane -->
    <path d="M250 332l40-16-40-16 6 16z"/>
    <!-- chat bubble small -->
    <path d="M40 320h36a8 8 0 0 1 8 8v14a8 8 0 0 1-8 8H56l-12 9v-9a8 8 0 0 1-8-8v-14"/>
  </g>
</svg>
