<svg xmlns="http://www.w3.org/2000/svg" viewBox="0 0 512 512" width="512" height="512">
  <defs>
    <linearGradient id="bg" x1="0" y1="0" x2="1" y2="1">
      <stop offset="0" stop-color="#00d6a0"/>
      <stop offset="1" stop-color="#007f63"/>
    </linearGradient>
    <linearGradient id="bars" x1="0" y1="0" x2="0" y2="1">
      <stop offset="0" stop-color="#00c896"/>
      <stop offset="1" stop-color="#008f6f"/>
    </linearGradient>
  </defs>
  <rect width="512" height="512" rx="116" fill="url(#bg)"/>
  <!-- speech bubble -->
  <path fill="#ffffff" d="M156 120h212a44 44 0 0 1 44 44v132a44 44 0 0 1-44 44H216l-58 46a10 10 0 0 1-16-8v-38a44 44 0 0 1-30-42V164a44 44 0 0 1 44-44z" opacity=".14"/>
  <path fill="#ffffff" d="M150 112h212a44 44 0 0 1 44 44v132a44 44 0 0 1-44 44H210l-58 46a10 10 0 0 1-16-8v-38a44 44 0 0 1-30-42V156a44 44 0 0 1 44-44z"/>
  <!-- voice equalizer -->
  <g fill="url(#bars)">
    <rect x="164" y="196" width="22" height="72" rx="11"/>
    <rect x="202" y="170" width="22" height="124" rx="11"/>
    <rect x="240" y="184" width="22" height="96" rx="11"/>
    <rect x="278" y="162" width="22" height="140" rx="11"/>
    <rect x="316" y="200" width="22" height="64" rx="11"/>
  </g>
</svg>
