<svg xmlns="http://www.w3.org/2000/svg" viewBox="0 0 512 512" width="512" height="512">
  <defs>
    <linearGradient id="bg" x1="0" y1="0" x2="1" y2="1">
      <stop offset="0" stop-color="#0ce0aa"/>
      <stop offset=".55" stop-color="#00a884"/>
      <stop offset="1" stop-color="#00765b"/>
    </linearGradient>
    <radialGradient id="glow" cx=".3" cy=".22" r=".95">
      <stop offset="0" stop-color="#ffffff" stop-opacity=".22"/>
      <stop offset=".6" stop-color="#ffffff" stop-opacity="0"/>
    </radialGradient>
    <linearGradient id="bars" x1="0" y1="0" x2="0" y2="1">
      <stop offset="0" stop-color="#00c896"/>
      <stop offset="1" stop-color="#008a6a"/>
    </linearGradient>
    <filter id="ds" x="-30%" y="-30%" width="160%" height="160%">
      <feDropShadow dx="0" dy="9" stdDeviation="13" flood-color="#003a2d" flood-opacity=".30"/>
    </filter>
  </defs>
  <rect width="512" height="512" rx="116" fill="url(#bg)"/>
  <rect width="512" height="512" rx="116" fill="url(#glow)"/>
  <!-- speech bubble with tail -->
  <g filter="url(#ds)">
    <path fill="#ffffff" d="M150 112h212a44 44 0 0 1 44 44v132a44 44 0 0 1-44 44H210l-58 46a10 10 0 0 1-16-8v-38a44 44 0 0 1-30-42V156a44 44 0 0 1 44-44z"/>
  </g>
  <!-- voice equalizer (sound wave) -->
  <g fill="url(#bars)">
    <rect x="164" y="198" width="24" height="74" rx="12"/>
    <rect x="204" y="172" width="24" height="126" rx="12"/>
    <rect x="244" y="152" width="24" height="166" rx="12"/>
    <rect x="284" y="174" width="24" height="122" rx="12"/>
    <rect x="324" y="200" width="24" height="70" rx="12"/>
  </g>
</svg>
